<?xml version="1.0" standalone="no"?>
<!DOCTYPE svg PUBLIC "-//W3C//DTD SVG 20010904//EN"
 "http://www.w3.org/TR/2001/REC-SVG-20010904/DTD/svg10.dtd">
<svg version="1.0" xmlns="http://www.w3.org/2000/svg"
 width="1933.000000pt" height="1933.000000pt" viewBox="0 0 1933.000000 1933.000000"
 preserveAspectRatio="xMidYMid meet">
<metadata>
Created by potrace 1.11, written by Peter Selinger 2001-2013
</metadata>
<g transform="translate(0.000000,1933.000000) scale(0.100000,-0.100000)"
fill="#000000" stroke="none">
<path d="M821 13408 c-24 -4 -63 -17 -87 -28 -62 -30 -154 -126 -188 -195
l-29 -60 1 -1205 0 -1205 27 -90 c110 -371 386 -664 750 -798 161 -59 218 -69
405 -69 944 1 940 1 1115 62 360 127 626 385 748 725 58 162 65 252 67 867 1
371 5 401 62 490 35 55 80 94 158 134 51 26 63 28 175 28 117 1 121 0 182 -33
79 -42 141 -104 181 -178 l31 -59 1 -249 c2 -343 8 -675 15 -763 13 -179 92
-382 209 -537 54 -72 220 -229 292 -277 141 -94 304 -162 463 -195 61 -13 160
-16 511 -17 597 -1 669 3 795 44 227 74 374 161 525 310 169 167 269 343 322
570 18 80 20 135 25 875 l5 790 26 49 c36 65 92 127 150 165 99 63 -12 60
1882 59 949 -1 1766 -4 1815 -7 141 -10 243 -70 297 -175 30 -57 30 -182 1
-246 -38 -85 -141 -160 -251 -186 -40 -9 -271 -13 -930 -14 -1216 -2 -1496 -6
-1612 -26 -521 -88 -883 -454 -938 -947 -49 -442 122 -835 463 -1059 154 -101
342 -172 495 -187 112 -10 470 -12 2108 -12 l1214 1 57 30 c31 17 74 47 96 68
97 90 130 168 130 307 0 82 -3 97 -33 157 -38 78 -106 144 -190 185 -43 21
-76 29 -147 33 -49 4 -715 8 -1480 9 -1515 2 -1594 3 -1675 27 -102 29 -197
119 -221 208 -16 59 -6 173 19 221 39 77 138 149 225 165 63 13 408 18 1527
25 476 3 897 8 935 11 105 7 178 22 273 56 188 66 319 147 452 278 176 174
271 361 305 600 79 561 -216 1041 -742 1210 -212 68 -77 64 -2078 66 -1968 2
-1991 1 -2150 -51 -199 -67 -363 -165 -499 -300 -96 -96 -170 -195 -222 -298
-47 -92 -101 -258 -108 -332 -3 -33 -8 -323 -11 -645 -3 -322 -8 -668 -10
-769 -4 -182 -5 -186 -35 -247 -37 -75 -102 -137 -198 -187 l-69 -37 -429 1
c-465 1 -494 3 -584 56 -65 38 -133 105 -163 162 -32 59 -34 78 -42 648 -3
215 -8 402 -10 415 -2 12 -6 45 -10 72 -9 70 -70 238 -116 324 -224 419 -716
671 -1209 620 -244 -26 -494 -132 -678 -289 -191 -162 -348 -442 -382 -679 -6
-40 -13 -292 -17 -559 -6 -482 -6 -486 -29 -532 -55 -111 -179 -206 -294 -228
-70 -13 -765 -13 -843 0 -119 20 -228 102 -286 217 l-30 60 -2 699 c0 384 -2
896 -3 1138 l-3 440 -29 59 c-43 89 -113 159 -198 201 -61 31 -83 36 -151 38
-44 2 -100 0 -124 -5z"/>
<path d="M13995 13409 c-282 -16 -567 -155 -783 -383 -170 -181 -276 -416
-300 -667 -4 -47 -7 -346 -6 -665 2 -952 3 -965 49 -1113 27 -87 88 -211 145
-297 62 -93 208 -241 300 -306 132 -93 307 -167 483 -205 77 -17 223 -18 2322
-17 l2241 1 71 37 c113 59 175 131 212 247 40 124 2 275 -95 379 -48 51 -142
105 -201 115 -64 10 -657 14 -2453 16 -1004 1 -1861 5 -1906 9 -45 4 -101 17
-125 27 -62 28 -148 110 -191 183 l-37 63 0 726 c1 780 1 787 52 868 57 91
162 163 262 182 30 6 802 10 1940 11 2427 1 2460 2 2544 43 53 26 141 112 177
172 30 52 53 157 47 216 -16 164 -108 281 -275 348 l-57 23 -2153 -3 c-1184
-2 -2202 -7 -2263 -10z"/>
<path d="M1220 8854 c-8 -2 -98 -5 -200 -7 -180 -3 -186 -4 -245 -32 -82 -41
-180 -141 -224 -229 l-34 -70 -3 -590 c-1 -329 3 -622 8 -661 22 -159 139
-295 313 -361 49 -19 216 -19 8720 -19 4769 0 8712 3 8763 7 123 9 199 44 286
130 83 83 125 168 135 274 13 125 7 1139 -7 1202 -38 174 -199 328 -362 349
-51 6 -17116 13 -17150 7z m15935 -639 c23 -22 25 -32 26 -117 1 -115 2 -121
31 -157 l23 -30 378 4 c209 2 381 6 384 9 4 3 8 56 11 118 2 62 9 129 16 148
10 32 15 35 52 38 69 5 69 5 69 -297 0 -260 -1 -267 -23 -303 -32 -51 -85 -95
-129 -107 -49 -14 -872 -15 -907 -1 -55 20 -43 105 16 114 18 3 218 7 444 8
388 3 413 4 433 22 24 22 38 83 23 98 -7 7 -107 12 -284 14 -448 6 -524 10
-561 33 -46 28 -82 71 -96 110 -12 37 -15 269 -3 287 9 14 44 33 60 34 7 0 24
-11 37 -25z m-15139 -9 c17 -24 18 -56 0 -78 -17 -23 -64 -26 -441 -33 -334
-6 -322 -2 -332 -98 l-6 -57 243 -2 243 -3 19 -26 c24 -32 16 -72 -17 -87 -14
-6 -112 -11 -246 -12 -123 0 -227 -4 -230 -8 -4 -4 -9 -65 -11 -136 -3 -112
-6 -130 -23 -142 -25 -18 -55 -18 -83 2 -22 15 -22 18 -22 277 0 233 2 267 19
303 20 44 91 110 125 117 11 2 184 4 384 3 348 -1 364 -2 378 -20z m299 8 c19
-14 20 -28 23 -343 3 -304 1 -328 -15 -343 -31 -27 -58 -30 -84 -9 l-24 19 -3
323 c-3 320 -3 322 19 345 26 27 55 30 84 8z m1243 -1 c44 -29 70 -54 96 -92
24 -36 24 -38 25 -297 2 -251 1 -261 -19 -287 -25 -32 -69 -36 -94 -9 -13 15
-17 44 -19 145 l-2 127 -65 1 c-36 0 -224 2 -417 4 l-353 4 0 -123 c0 -110 -2
-126 -21 -150 -23 -29 -55 -33 -85 -12 -18 13 -19 30 -22 272 -3 220 -1 265
13 301 18 46 92 119 128 126 12 2 199 5 415 6 358 1 395 -1 420 -16z m1009
-13 c8 -17 12 -99 14 -252 2 -242 8 -280 53 -294 25 -9 179 -8 206 1 33 10 50
66 50 162 0 121 12 159 69 214 63 60 145 76 234 45 48 -18 72 -39 105 -95 22
-39 27 -61 33 -160 4 -64 10 -124 14 -134 14 -33 57 -46 141 -43 83 3 128 18
140 45 3 9 8 122 11 251 3 147 9 244 17 260 15 34 67 39 95 11 20 -20 21 -32
21 -256 0 -286 -6 -322 -66 -380 -53 -52 -99 -65 -226 -65 -121 0 -163 13
-214 64 -50 50 -61 85 -67 223 -5 143 -36 181 -121 153 -45 -15 -52 -39 -57
-207 -2 -93 -24 -141 -84 -186 -56 -43 -96 -51 -239 -45 -92 3 -107 6 -144 31
-23 15 -54 46 -69 69 l-28 42 0 271 c0 305 1 308 64 303 27 -2 39 -9 48 -28z
m2431 -3 c22 -16 53 -47 69 -69 l28 -41 0 -216 c0 -212 0 -217 -24 -251 -32
-47 -74 -80 -123 -97 -50 -17 -712 -18 -791 -1 -61 13 -122 65 -142 123 -19
55 -20 404 -1 449 20 48 66 97 111 117 37 17 72 18 436 16 l396 -2 41 -28z
m1286 22 c54 -15 119 -83 135 -142 27 -94 -8 -179 -96 -234 -48 -31 -48 -31
-208 -33 -145 -2 -332 -7 -362 -9 -6 -1 -21 -17 -33 -36 -20 -33 -21 -36 -4
-70 9 -19 21 -38 26 -41 5 -4 152 -8 326 -10 l317 -4 23 -26 c36 -41 22 -86
-31 -100 -13 -3 -166 -4 -342 -2 l-320 3 -42 28 c-61 39 -96 96 -101 166 -5
64 10 108 54 160 52 62 75 66 432 76 101 3 191 9 202 15 31 17 35 66 8 105
l-23 35 -362 0 -361 0 -29 -30 -28 -30 -5 -250 c-5 -234 -6 -250 -25 -264 -26
-20 -55 -20 -83 0 -22 15 -22 18 -22 267 0 149 5 268 11 291 14 50 73 113 124
131 50 18 756 21 819 4z m466 1 c26 -14 29 -41 33 -303 4 -256 3 -253 77 -267
24 -4 219 -9 434 -9 282 -2 397 -5 416 -14 20 -10 25 -19 25 -52 0 -67 8 -66
-495 -63 l-445 3 -46 27 c-25 15 -59 46 -75 69 l-29 42 0 274 c0 260 1 275 19
289 23 16 60 18 86 4z m2165 -15 c100 -66 116 -117 112 -361 l-2 -182 -30 -43
c-17 -24 -50 -57 -74 -74 l-43 -30 -450 -3 c-396 -3 -453 -1 -474 13 -38 25
-31 89 12 105 13 5 198 10 411 10 213 1 408 5 433 10 73 13 77 24 78 218 0
142 -2 174 -16 197 l-17 28 -370 -1 c-204 0 -375 -1 -381 -1 -27 -2 -42 -64
-43 -180 -2 -123 -11 -153 -52 -166 -14 -5 -30 0 -48 13 l-26 19 0 161 c0 183
1 185 91 255 l49 38 405 -3 c386 -3 406 -4 435 -23z m1878 -10 c64 -49 89 -95
92 -166 4 -71 -21 -126 -74 -169 -48 -37 -98 -48 -241 -50 -105 -2 -312 -7
-351 -9 -18 -1 -48 -41 -54 -70 -5 -25 31 -81 52 -82 10 0 153 -2 318 -5 247
-4 303 -7 323 -20 33 -22 38 -42 17 -81 l-18 -34 -318 1 c-324 1 -373 6 -418
41 -103 81 -120 222 -38 315 58 67 70 69 433 79 99 2 188 7 198 11 42 16 48
80 10 118 l-27 26 -358 0 -357 0 -29 -30 -28 -30 -5 -251 c-5 -233 -6 -252
-24 -265 -30 -22 -62 -17 -86 13 -20 25 -21 37 -20 278 1 277 6 300 68 358 58
55 73 56 499 56 l392 0 44 -34z m1315 15 c54 -29 78 -52 104 -101 22 -43 23
-52 23 -300 0 -239 -1 -258 -19 -278 -25 -28 -61 -27 -91 4 -24 23 -25 30 -25
150 l0 125 -415 0 -415 0 0 -114 c0 -112 -9 -163 -33 -178 -26 -16 -66 -8 -83
17 -14 21 -16 58 -15 262 1 131 4 253 5 270 6 55 55 114 120 144 38 17 72 19
424 19 362 0 385 -1 420 -20z m499 -10 c9 -18 13 -91 13 -261 l0 -235 31 -32
31 -32 422 0 c470 0 469 0 474 -62 6 -70 14 -69 -478 -67 -472 1 -485 2 -542
56 -16 15 -40 46 -51 68 -21 38 -22 53 -22 303 0 252 1 264 20 278 31 23 87
14 102 -16z m1260 0 c9 -18 13 -91 13 -261 l0 -235 31 -32 31 -32 431 0 c428
0 431 0 454 -22 28 -27 29 -48 2 -82 l-20 -26 -446 0 -445 0 -50 27 c-28 15
-66 47 -84 72 l-34 44 0 268 c0 258 1 270 21 290 28 28 79 23 96 -11z"/>
<path d="M2755 8088 c-35 -43 -45 -67 -45 -105 l0 -43 411 4 c245 2 415 8 421
14 14 14 -2 81 -27 110 l-23 27 -364 3 c-286 2 -365 0 -373 -10z"/>
<path d="M6212 8092 c-69 -5 -76 -24 -80 -221 l-4 -166 31 -33 32 -34 352 4
c317 3 356 5 380 21 37 24 42 50 42 230 l-1 158 -29 25 -30 26 -325 -4 c-179
-2 -344 -4 -368 -6z"/>
<path d="M13354 8092 c-50 -7 -61 -13 -72 -37 -7 -14 -12 -46 -12 -70 l0 -45
415 0 415 0 0 47 c0 32 -7 58 -22 81 l-23 33 -341 -3 c-187 -2 -349 -4 -360
-6z"/>
<path d="M1275 6430 c-139 -19 -177 -87 -171 -306 4 -141 24 -192 88 -226 42
-23 49 -23 368 -25 179 -1 341 2 360 6 23 4 39 15 47 31 11 22 9 28 -14 52
l-26 27 -338 3 c-260 2 -341 6 -351 16 -16 16 -22 246 -8 273 18 32 71 38 375
40 165 2 311 5 324 9 55 14 54 83 -2 98 -38 10 -580 11 -652 2z"/>
<path d="M2721 6421 l-24 -18 1 -249 c1 -243 2 -249 23 -266 45 -37 87 -7 93
67 2 28 4 69 5 93 l1 42 298 0 c163 0 302 -4 309 -8 7 -4 14 -44 18 -92 3 -47
12 -91 19 -98 20 -20 54 -22 76 -4 20 16 21 29 26 258 l5 241 -31 26 c-26 22
-34 25 -55 15 -30 -13 -34 -24 -41 -107 -2 -36 -7 -76 -10 -88 l-4 -23 -203 4
c-111 2 -250 4 -308 5 l-107 1 -1 84 c-1 100 -4 110 -37 125 -30 13 -24 14
-53 -8z"/>
<path d="M4445 6430 c-60 -9 -109 -43 -131 -92 -17 -37 -19 -67 -19 -240 0
-118 4 -201 10 -206 19 -18 51 -22 70 -8 16 12 20 30 23 115 l4 101 319 0 319
0 1 -62 c2 -104 8 -132 30 -150 26 -22 30 -22 55 -4 17 13 19 29 21 198 3 248
-8 288 -93 332 -36 20 -56 21 -304 21 -146 1 -283 -2 -305 -5z m572 -126 c14
-17 23 -40 23 -61 l0 -34 -317 3 -318 3 -3 31 c-2 21 4 38 21 56 l24 25 273 2
273 2 24 -27z"/>
<path d="M6035 6429 c-66 -12 -92 -26 -122 -65 l-28 -37 0 -213 c0 -129 4
-217 10 -222 22 -21 52 -22 76 -3 23 19 24 23 27 203 4 230 3 228 107 228 97
0 115 -15 116 -97 1 -102 11 -142 46 -184 53 -62 145 -77 223 -36 60 32 80 74
88 191 4 53 13 101 20 108 17 17 136 23 172 8 l30 -12 1 -152 c0 -245 6 -268
63 -268 57 0 59 7 54 232 -4 209 -9 234 -48 271 -59 58 -203 75 -299 36 -74
-30 -101 -80 -109 -203 -5 -93 -21 -124 -62 -124 -39 0 -60 35 -60 103 -1 125
-28 184 -101 223 -32 16 -148 24 -204 13z"/>
<path d="M7809 6430 c-69 -9 -102 -30 -137 -89 -27 -46 -27 -47 -27 -239 0
-192 0 -194 24 -213 23 -19 54 -18 76 3 5 5 11 62 12 126 6 248 7 259 27 281
19 21 27 22 283 21 153 -1 276 -6 293 -12 25 -8 30 -15 30 -44 0 -30 -4 -34
-37 -44 -21 -5 -134 -11 -251 -12 -211 -3 -214 -3 -233 -27 -23 -29 -24 -33
-1 -61 19 -23 21 -23 263 -24 217 0 248 2 278 18 65 35 101 88 101 151 0 42
-12 69 -49 108 -53 58 -63 60 -341 62 -140 1 -280 -2 -311 -5z"/>
<path d="M9267 6424 c-19 -10 -27 -23 -28 -42 0 -15 -1 -128 -1 -252 0 -219 1
-225 22 -242 28 -23 42 -23 69 0 21 16 22 26 26 257 5 252 4 259 -40 282 -15
8 -27 7 -48 -3z"/>
<path d="M10260 6433 c-14 -2 -39 -6 -57 -8 -38 -7 -95 -58 -114 -105 -10 -25
-14 -74 -13 -170 1 -170 12 -203 79 -245 l48 -30 306 0 c301 0 307 0 349 23
68 36 86 86 86 242 1 154 -6 188 -46 229 -62 64 -67 65 -353 67 -143 0 -271 0
-285 -3z m538 -133 c22 -20 22 -28 20 -153 -3 -129 -3 -132 -28 -144 -18 -9
-94 -13 -280 -13 -186 0 -262 4 -280 13 -25 12 -25 15 -28 146 -2 86 1 138 8
145 12 12 133 20 390 24 166 2 177 2 198 -18z"/>
<path d="M11830 6432 c-60 -10 -110 -40 -135 -82 -18 -32 -20 -55 -23 -237 -2
-193 -1 -204 18 -223 15 -15 28 -19 43 -14 47 14 50 24 54 196 6 256 2 248
132 248 112 0 121 -10 121 -127 1 -189 16 -244 82 -289 39 -28 45 -29 162 -28
147 0 192 18 228 87 20 38 22 60 25 222 3 190 -1 214 -43 242 -18 12 -24 11
-43 -4 -26 -22 -29 -44 -32 -233 -1 -132 -9 -177 -32 -192 -18 -11 -175 -10
-197 2 -23 12 -28 40 -33 196 -6 142 -17 171 -81 209 -35 20 -61 27 -123 30
-43 2 -98 0 -123 -3z"/>
<path d="M13423 6430 c-72 -10 -114 -37 -141 -90 -41 -79 -12 -174 67 -218 46
-26 103 -30 431 -31 197 -1 206 -2 218 -22 11 -17 11 -27 2 -50 l-12 -29 -257
0 c-373 -1 -432 -5 -454 -31 -17 -22 -15 -53 5 -74 6 -6 139 -10 361 -10 396
0 405 2 451 72 57 86 28 191 -66 239 -34 17 -119 22 -429 25 -187 1 -214 8
-214 54 0 51 19 54 340 55 341 2 364 3 388 31 21 27 21 31 -2 60 l-19 24 -309
1 c-169 0 -331 -2 -360 -6z"/>
<path d="M14879 6421 c-24 -19 -24 -20 -25 -258 -1 -131 2 -248 7 -260 12 -33
56 -41 81 -15 18 18 34 96 37 190 1 10 63 12 309 10 l307 -3 6 -85 c7 -97 13
-117 40 -125 30 -10 58 4 66 33 5 15 8 131 8 258 0 256 -3 268 -59 262 -40 -4
-52 -31 -61 -133 -4 -44 -9 -82 -12 -85 -4 -4 -114 -2 -323 5 -41 2 -123 4
-182 4 l-106 1 -4 91 c-3 81 -6 93 -27 110 -29 24 -33 24 -62 0z"/>
<path d="M16469 6421 l-24 -19 0 -251 c0 -154 4 -254 10 -259 22 -21 52 -22
76 -3 l24 19 0 247 0 247 -24 19 c-29 24 -33 24 -62 0z"/>
<path d="M17435 6430 c-49 -7 -72 -19 -109 -59 -36 -38 -44 -82 -45 -261 -1
-183 5 -219 37 -231 13 -5 33 -7 43 -4 31 10 38 52 38 263 1 198 -26 182 305
182 146 0 276 -4 289 -9 47 -18 43 -85 -6 -96 -12 -2 -122 -6 -244 -7 -131 -2
-226 -7 -232 -13 -15 -16 -22 -59 -12 -75 14 -21 110 -29 326 -26 155 2 196 6
222 19 97 51 126 168 64 255 -42 59 -64 63 -364 65 -150 2 -290 0 -312 -3z"/>
</g>
</svg>
